<svg width="159" height="24" viewBox="0 0 159 24" fill="none" xmlns="http://www.w3.org/2000/svg">
<path d="M13.5996 0C16.7497 0 19.4962 1.7248 20.9678 4.2959C21.7753 3.74948 22.7533 3.42871 23.7998 3.42871C26.6154 3.42875 28.8994 5.73207 28.8994 8.57129C28.8994 9.22485 28.7774 9.8516 28.5596 10.4248C31.662 11.0569 34 13.8266 34 17.1426C34 20.93 30.9551 24 27.1992 24H23.4873C23.9379 23.1844 24.5032 22.4327 25.1729 21.7725C26.1873 20.7723 27.4107 20.002 28.7578 19.5156L30.4746 18.8955C30.6016 18.8501 30.7115 18.7673 30.7891 18.6582C30.8666 18.5491 30.9082 18.4193 30.9082 18.2861C30.9082 18.1529 30.8666 18.0231 30.7891 17.9141C30.7115 17.805 30.6016 17.7212 30.4746 17.6758L28.7578 17.0557C27.4108 16.5693 26.1872 15.7999 25.1729 14.7998C24.1584 13.7996 23.3771 12.5929 22.8838 11.2646L22.2549 9.57031C22.2088 9.44513 22.1252 9.33622 22.0146 9.25977C21.904 9.18333 21.7718 9.14261 21.6367 9.14258C21.5016 9.14258 21.3694 9.18333 21.2588 9.25977C21.1481 9.33623 21.0647 9.44508 21.0186 9.57031L20.3887 11.2646C19.8954 12.5928 19.115 13.7996 18.1006 14.7998C17.0863 15.7999 15.8626 16.5693 14.5156 17.0557L12.7969 17.6758C12.6699 17.7212 12.56 17.805 12.4824 17.9141C12.405 18.0231 12.3633 18.153 12.3633 18.2861C12.3633 18.4193 12.4049 18.5492 12.4824 18.6582C12.56 18.7673 12.6699 18.8501 12.7969 18.8955L14.5156 19.5156C15.8627 20.002 17.0862 20.7723 18.1006 21.7725C18.7702 22.4327 19.3355 23.1843 19.7861 24H7.65039C3.427 24 0 20.544 0 16.2852C0.000130306 12.9211 2.13552 10.0602 5.11035 9.00488C5.10504 8.86036 5.09961 8.71582 5.09961 8.57129C5.09961 3.83573 8.90352 0.000129817 13.5996 0Z" fill="#0054EC"/>
<path d="M49.6884 11.4922H46.8887C46.8375 11.13 46.7331 10.8082 46.5755 10.527C46.4178 10.2415 46.2154 9.99858 45.9682 9.7983C45.721 9.59801 45.4355 9.4446 45.1117 9.33807C44.7921 9.23153 44.4448 9.17827 44.0698 9.17827C43.3922 9.17827 42.802 9.34659 42.2992 9.68324C41.7963 10.0156 41.4064 10.5014 41.1294 11.1406C40.8524 11.7756 40.7139 12.5469 40.7139 13.4545C40.7139 14.3878 40.8524 15.1719 41.1294 15.8068C41.4107 16.4418 41.8027 16.9212 42.3056 17.245C42.8084 17.5689 43.3901 17.7308 44.0506 17.7308C44.4213 17.7308 44.7644 17.6818 45.0797 17.5838C45.3993 17.4858 45.6827 17.343 45.9299 17.1555C46.177 16.9638 46.3816 16.7315 46.5435 16.4588C46.7097 16.1861 46.8247 15.875 46.8887 15.5256L49.6884 15.5384C49.6159 16.1392 49.4348 16.7188 49.1451 17.277C48.8595 17.831 48.4739 18.3274 47.9881 18.7663C47.5066 19.201 46.9313 19.5462 46.2622 19.8018C45.5975 20.0533 44.8453 20.179 44.0058 20.179C42.8382 20.179 41.7942 19.9148 40.8737 19.3864C39.9576 18.858 39.2331 18.093 38.7005 17.0916C38.172 16.0902 37.9078 14.8778 37.9078 13.4545C37.9078 12.027 38.1763 10.8125 38.7132 9.81108C39.2502 8.80966 39.9789 8.04687 40.8993 7.52273C41.8198 6.99432 42.8553 6.73011 44.0058 6.73011C44.7644 6.73011 45.4675 6.83665 46.1152 7.04972C46.7672 7.26278 47.3446 7.57386 47.8475 7.98295C48.3503 8.38778 48.7594 8.88423 49.0747 9.4723C49.3943 10.0604 49.5989 10.7337 49.6884 11.4922ZM53.805 6.90909V20H51.082V6.90909H53.805ZM59.8823 20.1918C58.8895 20.1918 58.0308 19.9808 57.3064 19.5589C56.5862 19.1328 56.0301 18.5405 55.638 17.782C55.246 17.0192 55.05 16.1349 55.05 15.1293C55.05 14.1151 55.246 13.2287 55.638 12.4702C56.0301 11.7074 56.5862 11.1151 57.3064 10.6932C58.0308 10.267 58.8895 10.054 59.8823 10.054C60.8752 10.054 61.7318 10.267 62.452 10.6932C63.1764 11.1151 63.7346 11.7074 64.1267 12.4702C64.5187 13.2287 64.7147 14.1151 64.7147 15.1293C64.7147 16.1349 64.5187 17.0192 64.1267 17.782C63.7346 18.5405 63.1764 19.1328 62.452 19.5589C61.7318 19.9808 60.8752 20.1918 59.8823 20.1918ZM59.8951 18.0824C60.3468 18.0824 60.724 17.9545 61.0265 17.6989C61.3291 17.4389 61.5571 17.0852 61.7105 16.6378C61.8681 16.1903 61.947 15.6811 61.947 15.1101C61.947 14.5391 61.8681 14.0298 61.7105 13.5824C61.5571 13.1349 61.3291 12.7812 61.0265 12.5213C60.724 12.2614 60.3468 12.1314 59.8951 12.1314C59.4392 12.1314 59.0556 12.2614 58.7446 12.5213C58.4377 12.7812 58.2055 13.1349 58.0478 13.5824C57.8944 14.0298 57.8177 14.5391 57.8177 15.1101C57.8177 15.6811 57.8944 16.1903 58.0478 16.6378C58.2055 17.0852 58.4377 17.4389 58.7446 17.6989C59.0556 17.9545 59.4392 18.0824 59.8951 18.0824ZM72.2415 15.8196V10.1818H74.9645V20H72.3502V18.2166H72.2479C72.0263 18.7919 71.6577 19.2543 71.1421 19.6037C70.6307 19.9531 70.0064 20.1278 69.2692 20.1278C68.6129 20.1278 68.0355 19.9787 67.5369 19.6804C67.0384 19.3821 66.6485 18.9581 66.3672 18.4084C66.0902 17.8587 65.9496 17.2003 65.9453 16.4332V10.1818H68.6683V15.9474C68.6726 16.527 68.8281 16.9851 69.135 17.3217C69.4418 17.6584 69.853 17.8267 70.3686 17.8267C70.6968 17.8267 71.0036 17.7521 71.2891 17.603C71.5746 17.4496 71.8047 17.2237 71.9794 16.9254C72.1584 16.6271 72.2458 16.2585 72.2415 15.8196ZM80.2205 20.1598C79.4748 20.1598 78.7993 19.968 78.1942 19.5845C77.5934 19.1967 77.1161 18.6278 76.7624 17.8778C76.413 17.1236 76.2383 16.1989 76.2383 15.1037C76.2383 13.9787 76.4194 13.0433 76.7816 12.2976C77.1438 11.5476 77.6253 10.9872 78.2262 10.6165C78.8313 10.2415 79.4939 10.054 80.2141 10.054C80.7638 10.054 81.2219 10.1477 81.5884 10.3352C81.9591 10.5185 82.2574 10.7486 82.4833 11.0256C82.7134 11.2983 82.8881 11.5668 83.0074 11.831H83.0905V6.90909H85.8071V20H83.1225V18.4276H83.0074C82.8796 18.7003 82.6985 18.9709 82.4641 19.2393C82.234 19.5036 81.9336 19.723 81.5628 19.8977C81.1963 20.0724 80.7489 20.1598 80.2205 20.1598ZM81.0834 17.9929C81.5223 17.9929 81.8931 17.8736 82.1956 17.6349C82.5025 17.392 82.7368 17.0533 82.8988 16.6186C83.065 16.1839 83.1481 15.6747 83.1481 15.0909C83.1481 14.5071 83.0671 14 82.9052 13.5696C82.7432 13.1392 82.5088 12.8068 82.202 12.5724C81.8952 12.3381 81.5223 12.2209 81.0834 12.2209C80.636 12.2209 80.2588 12.3423 79.952 12.5852C79.6452 12.8281 79.413 13.1648 79.2553 13.5952C79.0976 14.0256 79.0188 14.5241 79.0188 15.0909C79.0188 15.6619 79.0976 16.1669 79.2553 16.6058C79.4172 17.0405 79.6495 17.3814 79.952 17.6286C80.2588 17.8714 80.636 17.9929 81.0834 17.9929Z" fill="black"/>
<path d="M98.5067 6.90909V20H96.116L90.4207 11.7607H90.3248V20H87.5571V6.90909H89.9861L95.6366 15.142H95.7517V6.90909H98.5067ZM103.002 20.1854C102.376 20.1854 101.817 20.0767 101.327 19.8594C100.837 19.6378 100.449 19.3118 100.164 18.8814C99.8827 18.4467 99.7421 17.9055 99.7421 17.2578C99.7421 16.7124 99.8422 16.2543 100.042 15.8835C100.243 15.5128 100.515 15.2145 100.861 14.9886C101.206 14.7628 101.598 14.5923 102.037 14.4773C102.48 14.3622 102.944 14.2812 103.43 14.2344C104.001 14.1747 104.462 14.1193 104.811 14.0682C105.16 14.0128 105.414 13.9318 105.572 13.8253C105.729 13.7187 105.808 13.5611 105.808 13.3523V13.3139C105.808 12.9091 105.68 12.5959 105.425 12.3743C105.173 12.1527 104.815 12.0419 104.351 12.0419C103.861 12.0419 103.471 12.1506 103.181 12.3679C102.891 12.581 102.699 12.8494 102.606 13.1733L100.087 12.9688C100.215 12.3722 100.466 11.8565 100.841 11.4219C101.216 10.983 101.7 10.6463 102.292 10.4119C102.889 10.1733 103.579 10.054 104.364 10.054C104.909 10.054 105.431 10.1179 105.93 10.2457C106.432 10.3736 106.878 10.5717 107.265 10.8402C107.658 11.1087 107.966 11.4538 108.192 11.8757C108.418 12.2933 108.531 12.794 108.531 13.3778V20H105.949V18.6385H105.872C105.714 18.9453 105.503 19.2159 105.239 19.4503C104.975 19.6804 104.658 19.8615 104.287 19.9936C103.916 20.1214 103.488 20.1854 103.002 20.1854ZM103.782 18.3061C104.182 18.3061 104.536 18.2273 104.843 18.0696C105.15 17.9077 105.39 17.6903 105.565 17.4176C105.74 17.1449 105.827 16.8359 105.827 16.4908V15.4489C105.742 15.5043 105.625 15.5554 105.476 15.6023C105.331 15.6449 105.167 15.6854 104.984 15.7237C104.8 15.7578 104.617 15.7898 104.434 15.8196C104.251 15.8452 104.084 15.8686 103.935 15.8899C103.616 15.9368 103.337 16.0114 103.098 16.1136C102.859 16.2159 102.674 16.3544 102.542 16.5291C102.41 16.6996 102.344 16.9126 102.344 17.1683C102.344 17.5391 102.478 17.8224 102.746 18.0185C103.019 18.2102 103.364 18.3061 103.782 18.3061ZM115.326 10.1818V12.2273H109.413V10.1818H115.326ZM110.756 7.82955H113.479V16.983C113.479 17.2344 113.517 17.4304 113.594 17.571C113.67 17.7074 113.777 17.8033 113.913 17.8587C114.054 17.9141 114.216 17.9418 114.399 17.9418C114.527 17.9418 114.655 17.9311 114.783 17.9098C114.911 17.8842 115.009 17.8651 115.077 17.8523L115.505 19.8786C115.369 19.9212 115.177 19.9702 114.93 20.0256C114.683 20.0852 114.382 20.1214 114.028 20.1342C113.372 20.1598 112.797 20.0724 112.303 19.8722C111.812 19.6719 111.431 19.3608 111.158 18.9389C110.886 18.517 110.751 17.9844 110.756 17.3409V7.82955ZM116.56 20V10.1818H119.283V20H116.56ZM117.928 8.91619C117.523 8.91619 117.176 8.78196 116.886 8.51349C116.6 8.24077 116.458 7.91477 116.458 7.53551C116.458 7.16051 116.6 6.83878 116.886 6.57031C117.176 6.29758 117.523 6.16122 117.928 6.16122C118.333 6.16122 118.678 6.29758 118.963 6.57031C119.253 6.83878 119.398 7.16051 119.398 7.53551C119.398 7.91477 119.253 8.24077 118.963 8.51349C118.678 8.78196 118.333 8.91619 117.928 8.91619ZM125.36 20.1918C124.367 20.1918 123.509 19.9808 122.784 19.5589C122.064 19.1328 121.508 18.5405 121.116 17.782C120.724 17.0192 120.528 16.1349 120.528 15.1293C120.528 14.1151 120.724 13.2287 121.116 12.4702C121.508 11.7074 122.064 11.1151 122.784 10.6932C123.509 10.267 124.367 10.054 125.36 10.054C126.353 10.054 127.21 10.267 127.93 10.6932C128.654 11.1151 129.212 11.7074 129.604 12.4702C129.997 13.2287 130.193 14.1151 130.193 15.1293C130.193 16.1349 129.997 17.0192 129.604 17.782C129.212 18.5405 128.654 19.1328 127.93 19.5589C127.21 19.9808 126.353 20.1918 125.36 20.1918ZM125.373 18.0824C125.825 18.0824 126.202 17.9545 126.504 17.6989C126.807 17.4389 127.035 17.0852 127.188 16.6378C127.346 16.1903 127.425 15.6811 127.425 15.1101C127.425 14.5391 127.346 14.0298 127.188 13.5824C127.035 13.1349 126.807 12.7812 126.504 12.5213C126.202 12.2614 125.825 12.1314 125.373 12.1314C124.917 12.1314 124.533 12.2614 124.222 12.5213C123.916 12.7812 123.683 13.1349 123.526 13.5824C123.372 14.0298 123.296 14.5391 123.296 15.1101C123.296 15.6811 123.372 16.1903 123.526 16.6378C123.683 17.0852 123.916 17.4389 124.222 17.6989C124.533 17.9545 124.917 18.0824 125.373 18.0824ZM134.146 14.3239V20H131.423V10.1818H134.018V11.9141H134.133C134.351 11.343 134.715 10.8913 135.226 10.5589C135.738 10.2223 136.358 10.054 137.086 10.054C137.768 10.054 138.363 10.2031 138.87 10.5014C139.377 10.7997 139.771 11.2259 140.052 11.7798C140.334 12.3295 140.474 12.9858 140.474 13.7486V20H137.751V14.2344C137.756 13.6335 137.602 13.1648 137.291 12.8281C136.98 12.4872 136.552 12.3168 136.006 12.3168C135.64 12.3168 135.316 12.3956 135.035 12.5533C134.758 12.7109 134.54 12.9411 134.383 13.2436C134.229 13.5419 134.15 13.902 134.146 14.3239ZM144.388 20H141.422L145.941 6.90909H149.508L154.021 20H151.055L147.776 9.90057H147.673L144.388 20ZM144.203 14.8544H151.208V17.0149H144.203V14.8544ZM157.824 6.90909V20H155.056V6.90909H157.824Z" fill="#707070"/>
</svg>
