<svg width="1201" height="300" viewBox="0 0 1201 300" fill="none" xmlns="http://www.w3.org/2000/svg">
<path d="M1200.46 108.203V131.567H1171.59V212.537C1171.59 217.818 1172.66 221.488 1174.81 223.547C1177.05 225.606 1180.99 226.636 1186.62 226.636H1200.46V250H1182.6C1156.37 250 1143.25 238.721 1143.25 216.162V69.5312H1171.59V108.203H1200.46Z" fill="#020617"/>
<path d="M1071.94 253.357C1061.11 253.357 1051.35 251.611 1042.67 248.12C1033.99 244.629 1026.96 239.437 1021.59 232.544C1016.31 225.651 1013.35 217.102 1012.73 206.897H1040.65C1042.27 222.831 1052.52 230.798 1071.4 230.798C1080.36 230.798 1087.43 228.963 1092.62 225.293C1097.9 221.623 1100.54 216.968 1100.54 211.328C1100.54 206.494 1098.66 202.645 1094.9 199.78C1091.14 196.826 1086.22 194.678 1080.13 193.335L1056.63 188.098C1029.51 182.19 1015.95 168.673 1015.95 147.546C1015.95 135.014 1020.92 124.809 1030.85 116.931C1040.88 109.054 1053.99 105.115 1070.2 105.115C1086.22 105.115 1099.38 109.277 1109.67 117.603C1120.06 125.838 1125.43 137.118 1125.79 151.44H1098.66C1098.57 144.548 1095.98 138.863 1090.87 134.387C1085.77 129.822 1079.01 127.539 1070.6 127.539C1062.54 127.539 1056.14 129.419 1051.4 133.179C1046.65 136.938 1044.28 141.549 1044.28 147.009C1044.28 151.843 1046.07 155.737 1049.65 158.691C1053.32 161.646 1058.33 163.839 1064.69 165.271L1088.86 170.642C1102.65 173.686 1112.81 178.385 1119.34 184.741C1125.88 191.097 1129.14 199.422 1129.14 209.717C1129.14 218.758 1126.64 226.546 1121.62 233.081C1116.7 239.526 1109.94 244.539 1101.35 248.12C1092.75 251.611 1082.95 253.357 1071.94 253.357Z" fill="#020617"/>
<path d="M928.12 252.283C913.976 252.283 902.249 248.702 892.939 241.541C883.629 234.29 878.974 223.592 878.974 209.448C878.974 198.706 881.615 190.47 886.896 184.741C892.268 178.923 899.205 174.76 907.709 172.253C916.303 169.747 925.389 167.912 934.968 166.748C943.83 165.674 950.857 164.779 956.049 164.062C961.241 163.346 964.912 162.272 967.06 160.84C969.298 159.408 970.417 156.946 970.417 153.455V152.246C970.417 145.353 967.91 139.714 962.897 135.327C957.884 130.851 950.857 128.613 941.816 128.613C932.775 128.613 925.389 130.806 919.66 135.193C913.931 139.49 910.798 144.906 910.261 151.44H882.465C883.092 137.923 888.776 126.868 899.519 118.274C910.261 109.68 924.494 105.383 942.219 105.383C959.675 105.383 973.416 109.68 983.442 118.274C993.468 126.868 998.481 138.371 998.481 152.783V250H970.551V229.858H970.014C967.06 235.588 962.36 240.78 955.915 245.435C949.559 250 940.294 252.283 928.12 252.283ZM933.894 229.456C946.426 229.456 955.646 226.233 961.555 219.788C967.552 213.253 970.551 205.644 970.551 196.96V180.31C968.671 181.832 964.419 183.219 957.795 184.473C951.171 185.636 944.099 186.755 936.579 187.83C928.791 188.993 921.943 191.187 916.035 194.409C910.126 197.632 907.172 202.824 907.172 209.985C907.172 216.073 909.545 220.862 914.289 224.353C919.123 227.755 925.658 229.456 933.894 229.456Z" fill="#020617"/>
<path d="M808.065 253.223C794.548 253.223 782.687 250.09 772.481 243.823C762.366 237.557 754.488 228.874 748.849 217.773C743.209 206.584 740.389 193.783 740.389 179.37C740.389 164.779 743.209 151.888 748.849 140.698C754.578 129.508 762.5 120.78 772.616 114.514C782.731 108.158 794.548 104.98 808.065 104.98C819.344 104.98 829.415 107.218 838.277 111.694C847.229 116.081 854.48 122.168 860.03 129.956C865.58 137.744 868.937 146.651 870.101 156.677H841.903C840.471 148.71 836.89 142.175 831.161 137.073C825.431 131.97 817.778 129.419 808.199 129.419C795.935 129.419 786.357 133.94 779.464 142.981C772.571 152.022 769.125 164.152 769.125 179.37C769.125 194.409 772.571 206.405 779.464 215.356C786.357 224.308 795.935 228.784 808.199 228.784C817.957 228.784 825.476 226.322 830.758 221.399C836.039 216.386 839.62 209.717 841.5 201.392H870.101C869.027 211.239 865.715 220.101 860.165 227.979C854.614 235.767 847.363 241.943 838.412 246.509C829.46 250.985 819.344 253.223 808.065 253.223Z" fill="#020617"/>
<path d="M654.441 252.82C642.087 252.82 631.3 249.731 622.08 243.555C612.86 237.288 605.698 228.65 600.596 217.639C595.493 206.539 592.942 193.693 592.942 179.102C592.942 164.51 595.493 151.709 600.596 140.698C605.788 129.598 612.994 120.959 622.214 114.783C631.435 108.516 642.132 105.383 654.307 105.383C663.527 105.383 671.942 107.308 679.551 111.157C687.16 115.007 693.247 120.87 697.812 128.748H698.081V49.9268H726.414V250H698.618V228.381H698.35C693.605 236.617 687.384 242.749 679.685 246.777C672.076 250.806 663.661 252.82 654.441 252.82ZM660.215 228.381C672.3 228.381 681.923 223.905 689.084 214.954C696.335 205.912 699.961 193.962 699.961 179.102C699.961 164.152 696.335 152.201 689.084 143.25C681.923 134.208 672.3 129.688 660.215 129.688C648.757 129.688 639.447 133.94 632.285 142.444C625.213 150.859 621.677 163.078 621.677 179.102C621.677 195.125 625.213 207.345 632.285 215.759C639.447 224.174 648.757 228.381 660.215 228.381Z" fill="#020617"/>
<path d="M578.832 49.9268V250H550.5V49.9268H578.832Z" fill="#020617"/>
<path d="M468.58 253.223C455.062 253.223 443.201 250.09 432.996 243.823C422.791 237.557 414.824 228.874 409.095 217.773C403.455 206.673 400.635 193.872 400.635 179.37C400.635 164.689 403.455 151.799 409.095 140.698C414.824 129.508 422.791 120.78 432.996 114.514C443.201 108.158 455.062 104.98 468.58 104.98C482.097 104.98 493.913 108.158 504.029 114.514C514.234 120.78 522.156 129.508 527.796 140.698C533.525 151.799 536.39 164.689 536.39 179.37C536.39 193.872 533.525 206.673 527.796 217.773C522.156 228.874 514.234 237.557 504.029 243.823C493.913 250.09 482.097 253.223 468.58 253.223ZM468.58 228.784C480.754 228.784 490.333 224.308 497.315 215.356C504.297 206.405 507.789 194.409 507.789 179.37C507.789 164.152 504.253 152.022 497.181 142.981C490.198 133.94 480.665 129.419 468.58 129.419C456.495 129.419 446.916 133.94 439.844 142.981C432.862 151.933 429.371 164.062 429.371 179.37C429.371 194.499 432.862 206.539 439.844 215.491C446.827 224.353 456.405 228.784 468.58 228.784Z" fill="#020617"/>
<path d="M300.185 253.223C282.639 253.223 266.974 248.836 253.188 240.063C239.492 231.291 228.66 219.161 220.693 203.674C212.815 188.188 208.876 170.329 208.876 150.098C208.876 129.508 212.86 111.471 220.827 95.9839C228.794 80.4972 239.715 68.4123 253.591 59.729C267.556 51.0457 283.49 46.7041 301.394 46.7041C315.896 46.7041 329.144 49.6134 341.14 55.4321C353.225 61.2508 363.206 69.3075 371.083 79.6021C379.051 89.8966 384.064 101.847 386.123 115.454H355.91C353.135 103.101 346.869 93.1193 337.111 85.5103C327.354 77.8117 315.582 73.9624 301.796 73.9624C289.174 73.9624 278.119 77.1403 268.63 83.4961C259.23 89.8519 251.89 98.759 246.608 110.217C241.416 121.586 238.82 134.88 238.82 150.098C238.82 165.226 241.416 178.52 246.608 189.978C251.89 201.347 259.23 210.209 268.63 216.565C278.119 222.831 289.219 225.964 301.931 225.964C312.136 225.964 321.446 223.816 329.86 219.519C338.275 215.222 345.034 209.09 350.136 201.123C355.328 193.156 358.103 183.667 358.461 172.656H308.51V147.815H387.6V250H365.712L362.49 222.876C356.313 231.917 347.943 239.258 337.38 244.897C326.817 250.448 314.418 253.223 300.185 253.223Z" fill="#020617"/>
<path fill-rule="evenodd" clip-rule="evenodd" d="M131 150C131 78.27 72.4165 20 0 20V0C83.3278 0 151 67.0903 151 150C151 232.91 83.3278 300 0 300V280C72.4165 280 131 221.73 131 150Z" fill="#FF4200"/>
<path fill-rule="evenodd" clip-rule="evenodd" d="M75 150C75 108.579 41.4214 75 0 75V55C52.4671 55 95 97.5329 95 150C95 202.467 52.4671 245 0 245V225C41.4214 225 75 191.421 75 150Z" fill="#FF4200"/>
</svg>
