<svg width="76" height="25" viewBox="0 0 76 25" fill="none" xmlns="http://www.w3.org/2000/svg">
<g clip-path="url(#clip0_304_1443)">
<path d="M13.5714 7.9568C14.9379 7.9568 15.9956 8.39702 17.1404 9.10314C17.2719 9.19177 17.3827 9.23461 17.4713 9.23461C17.625 9.23461 17.7579 9.10314 17.9337 8.81655L18.9471 7.14284C19.2115 6.70262 19.1672 6.52535 18.8156 6.30524C16.8775 5.11606 15.5332 4.74084 13.4621 4.74084C10.1132 4.74084 7.6462 6.59183 7.6462 9.72063C7.6462 13.6427 11.1931 14.0386 13.6837 14.501C15.0501 14.7654 15.9084 15.052 15.9084 16.1097C15.9084 16.9916 15.2259 17.5205 13.5064 17.5205C12.0528 17.5205 10.4441 16.9251 9.14413 16.1097C9.01265 16.0211 8.90186 15.9782 8.81322 15.9782C8.65959 15.9782 8.52664 16.1097 8.35085 16.3963L7.33746 18.1365C7.09519 18.5767 7.11735 18.7096 7.46893 18.9741C8.98901 20.0982 11.1709 20.7364 13.6157 20.7364C17.1183 20.7364 19.5424 18.754 19.5424 15.9339C19.5424 11.9025 16.1714 11.5495 13.6822 11.1092C12.2714 10.867 11.2802 10.6025 11.2802 9.56699C11.2802 8.53145 12.1178 7.95828 13.5714 7.95828V7.9568Z" fill="#010514"/>
<path d="M22.2887 8.76197H21.3743C20.8942 8.76197 20.7568 8.89935 20.7568 9.37798V11.938C20.7568 12.4167 20.8942 12.554 21.3743 12.554H22.1514V16.3845C22.1514 19.6478 23.9107 20.9728 26.5624 20.9728C27.2257 20.9728 28.276 20.8591 29.0988 20.3332C29.4652 20.1057 29.5789 19.9683 29.4194 19.5576L28.6881 17.686C28.5966 17.4585 28.4828 17.3211 28.1859 17.4349C27.6836 17.618 27.4089 17.7318 26.883 17.7318C26.038 17.7318 25.7632 17.4585 25.7632 16.3845V12.554H28.5286C29.0087 12.554 29.1461 12.4167 29.1461 11.938V9.37798C29.1461 8.89935 29.0087 8.76197 28.5286 8.76197H25.7632V7.15178C25.7632 6.67315 25.6258 6.53577 25.1457 6.53577H22.9062C22.4261 6.53577 22.2887 6.67315 22.2887 7.15178V8.76197Z" fill="#010514"/>
<path d="M37.6653 12.4151C38.1218 12.4151 38.2591 12.3235 38.3286 11.842L38.6713 9.32769C38.7171 8.91554 38.6934 8.75452 38.1232 8.75452C35.9753 8.75452 34.9235 9.31882 34.1465 10.6262L33.4611 9.41041C33.2099 8.97463 33.0267 8.79145 32.6604 8.79145H31.5628C31.0827 8.79145 30.9453 8.92883 30.9453 9.41041V20.116C30.9453 20.5976 31.0827 20.7349 31.5628 20.7349H33.9397C34.4198 20.7349 34.5572 20.5976 34.5572 20.116V14.7994C34.5572 13.1936 35.38 12.4151 37.6653 12.4151Z" fill="#010514"/>
<path d="M40.4912 20.1189C40.4912 20.5991 40.6271 20.7364 41.1043 20.7364H43.4664C43.9435 20.7364 44.0794 20.5991 44.0794 20.1189V9.37054C44.0794 8.89044 43.9435 8.75305 43.4664 8.75305H41.1043C40.6271 8.75305 40.4912 8.89044 40.4912 9.37054V20.1189Z" fill="#010514"/>
<path d="M60.2715 16.3889C60.2744 16.4066 60.2789 16.4244 60.2833 16.4406H65.8126L60.2715 16.3889ZM58.131 16.4495L56.8724 16.4347C57.5489 19.107 59.8224 20.9817 62.9039 20.9817C64.8701 20.9817 66.1258 20.5252 67.2928 19.5901C67.5676 19.3848 67.5897 19.0406 67.3386 18.6993L66.5158 17.5367C66.3784 17.3314 66.2189 17.2177 66.0135 17.2177C65.8761 17.2177 65.7166 17.2634 65.5334 17.3772C64.8938 17.7421 64.1389 17.9696 63.0664 17.9696C61.5803 17.9696 60.6009 17.7657 60.2877 16.451C60.2877 16.448 60.2877 16.4451 60.2877 16.4421H59.3925L58.1339 16.451L58.131 16.4495ZM62.7429 8.51965C59.8904 8.51965 57.5519 10.415 56.8665 13.1168H60.431C60.821 11.9587 61.6645 11.4623 62.7429 11.4623C63.8907 11.4623 64.6013 12.2615 64.8376 13.0976C64.845 13.1198 64.8509 13.1419 64.8569 13.1641H68.1511C68.2353 13.1641 68.3121 13.201 68.3638 13.2616C68.3638 13.2616 68.3446 13.1789 68.3461 13.1804C67.8453 10.5006 65.9441 8.51965 62.7444 8.51965H62.7429Z" fill="#010514"/>
<path d="M68.4671 14.4566C68.4671 14.8703 68.4302 15.275 68.3593 15.6665C68.278 16.12 67.8821 16.4494 67.4227 16.4494H54.7376C54.5072 16.4494 54.4392 16.5942 54.587 16.77L57.6448 20.4143C57.794 20.5901 57.7261 20.7349 57.4956 20.7349H53.6297C53.3993 20.7349 53.0905 20.5901 52.9413 20.4143L50.8126 17.8779C50.6649 17.7021 50.4226 17.4126 50.2749 17.2353L49.7313 16.5883C49.5835 16.4125 49.4624 16.0801 49.4624 15.8497V13.6604C49.4624 13.43 49.5835 13.0946 49.7327 12.9188L50.2749 12.2733C50.4226 12.0975 50.6649 11.8079 50.8126 11.6307L52.9177 9.12232C53.0669 8.94653 53.3756 8.80176 53.6061 8.80176H57.472C57.7025 8.80176 57.7704 8.94653 57.6227 9.12232L54.5559 12.777C54.4082 12.9528 54.4762 13.0976 54.7066 13.0976H68.3312C68.4213 13.5363 68.4686 13.9898 68.4686 14.4552L68.4671 14.4566Z" fill="#2B64F9"/>
<path d="M48.848 3.37147H46.4859C46.0087 3.37147 45.8728 3.51033 45.8728 3.99487V20.1145C45.8728 20.5991 46.0087 20.7364 46.4859 20.7364H48.848C49.3251 20.7364 49.461 20.5991 49.461 20.1145V3.99339C49.461 3.50886 49.3251 3.37 48.848 3.37V3.37147Z" fill="#010514"/>
<path d="M43.4664 3.37146H41.1043C40.6271 3.37146 40.4912 3.51032 40.4912 3.99486V6.34662C40.4912 6.83116 40.6271 6.96854 41.1043 6.96854H43.4664C43.9435 6.96854 44.0794 6.83116 44.0794 6.34662V3.99486C44.0794 3.51032 43.9435 3.37146 43.4664 3.37146Z" fill="#010514"/>
</g>
<defs>
<clipPath id="clip0_304_1443">
<rect width="76" height="24" fill="white" transform="translate(0 0.171387)"/>
</clipPath>
</defs>
</svg>
